# xmcd CD database file
#
# Track frame offsets:
#	150
#	15250
#	31230
#	45147
#	58102
#	80045
#	91247
#	105935
#	116670
#	130920
#	148830
#	162525
#	173990
#	184832
#	197047
#	217200
#
# Disc length: 3129 seconds
#
# Revision: 0
# Processed by: cddbd v1.5.1PL0 Copyright (c) Steve Scherf et al.
# Submitted via: CDex 1.51
#
DISCID=db0c3710
DTITLE=Mel Torme - The Bethlehem Years
DYEAR=2005
DGENRE=Jazz
TTITLE0=I Got It Bad, And That Ain't Good
TTITLE1=How Long Has This Been Going On?
TTITLE2=Lulu's Back In Town
TTITLE3=The Lady Is A Tramp
TTITLE4=Lullaby Of Birdland
TTITLE5=Fascinating Rhythm
TTITLE6=I Got Plenty O' Nuttin'
TTITLE7=The Way You Look Tonight
TTITLE8=Nice Work If You Can Get It
TTITLE9=Something's Gotta Give
TTITLE10=They Can't Take That Away From Me
TTITLE11=Just One Of Those Things
TTITLE12=I'm Beginning To See The Light
TTITLE13=It's Delovely
TTITLE14=It's All Right With Me
TTITLE15=Poor Little Extra Girl
EXTD=YEAR: 2005
EXTT0=
EXTT1=
EXTT2=
EXTT3=
EXTT4=
EXTT5=
EXTT6=
EXTT7=
EXTT8=
EXTT9=
EXTT10=
EXTT11=
EXTT12=
EXTT13=
EXTT14=
EXTT15=
PLAYORDER=
